<svg width="60" height="27" viewBox="0 0 60 27" fill="none" xmlns="http://www.w3.org/2000/svg">
<mask id="path-1-inside-1_16_5" fill="white">
<path d="M59.4 0L34.95 24.45C32.0625 27.3375 27.3375 27.3375 24.45 24.45L0 0"/>
</mask>
<path d="M62.9355 3.53553C64.8882 1.58291 64.8882 -1.58291 62.9355 -3.53553C60.9829 -5.48816 57.8171 -5.48816 55.8645 -3.53553L62.9355 3.53553ZM3.53553 -3.53553C1.58291 -5.48816 -1.58291 -5.48816 -3.53553 -3.53553C-5.48816 -1.58291 -5.48816 1.58291 -3.53553 3.53553L3.53553 -3.53553ZM55.8645 -3.53553L31.4145 20.9145L38.4855 27.9855L62.9355 3.53553L55.8645 -3.53553ZM31.4145 20.9145C30.4796 21.8493 28.9204 21.8493 27.9855 20.9145L20.9145 27.9855C25.7546 32.8257 33.6454 32.8257 38.4855 27.9855L31.4145 20.9145ZM27.9855 20.9145L3.53553 -3.53553L-3.53553 3.53553L20.9145 27.9855L27.9855 20.9145Z" fill="black" mask="url(#path-1-inside-1_16_5)"/>
</svg>
