<svg width="435" height="558" viewBox="0 0 435 558" fill="none" xmlns="http://www.w3.org/2000/svg">
<rect width="435" height="558" fill="#343434"/>
<path d="M283.869 291.251V196.283C283.869 192.161 282.091 188.35 278.8 185.824C275.554 183.298 271.419 182.412 267.417 183.387L192.582 201.822C186.623 203.285 182.443 208.603 182.443 214.718V292.937C177.552 288.55 171.194 285.846 164.168 285.846C149.184 285.846 137 297.989 137 312.923C137 327.857 149.184 340 164.168 340C178.842 340 190.803 328.434 191.336 313.809H191.381V248.755L274.973 228.148V270.78C270.082 266.393 263.768 263.69 256.742 263.69C241.758 263.69 229.574 275.832 229.574 290.767C229.574 305.701 241.802 317.932 256.787 317.932C271.683 317.932 283.822 305.878 284 291.254L283.869 291.251Z" fill="grey"/>
</svg>
