<svg width="36" height="33" viewBox="0 0 36 33" fill="currentColor" xmlns="http://www.w3.org/2000/svg">
<path fill-rule="evenodd" clip-rule="evenodd" d="M18.2574 0.961239C19.4596 1.66223 19.9535 2.97423 19.9535 4.48371V6.53127C19.954 6.55365 19.954 6.57597 19.9535 6.59821V15.8304C19.9535 16.999 19.4893 18.12 18.6628 18.9465C17.8364 19.7729 16.7155 20.2372 15.5468 20.2372C14.3781 20.2372 13.2572 19.7729 12.4308 18.9465C11.6044 18.1201 11.1401 16.9993 11.1401 15.8305C11.1401 14.6618 11.6044 13.541 12.4308 12.7145C13.2572 11.8881 14.3781 11.4239 15.5468 11.4239C16.0297 11.4239 16.5043 11.5031 16.9535 11.6544V8.5286L9.31342 10.6157L9.31333 17.7637C9.31333 17.7637 9.31333 17.7637 9.31333 17.7637C9.31333 18.9325 8.84906 20.0533 8.02265 20.8797C7.19624 21.7061 6.07539 22.1704 4.90667 22.1704C3.73795 22.1704 2.61709 21.7061 1.79068 20.8797C0.964274 20.0533 0.5 18.9325 0.5 17.7637C0.5 16.595 0.964275 15.4742 1.79068 14.6478C2.61709 13.8213 3.73794 13.3571 4.90667 13.3571C5.38954 13.3571 5.86424 13.4363 6.31339 13.5876L6.31344 9.50123C6.31299 9.48011 6.31299 9.45904 6.31344 9.43803L6.31348 6.07038C6.31348 6.07037 6.31348 6.07038 6.31348 6.07038C6.31348 4.12527 7.55362 2.74989 9.19773 2.29203L9.20434 2.29019L15.0097 0.702066C15.9242 0.455568 17.172 0.328376 18.2574 0.961239ZM9.31346 7.50579L16.9535 5.41867V4.48371C16.9535 4.02935 16.8808 3.78251 16.8278 3.66646C16.7856 3.57407 16.7544 3.55726 16.7472 3.55337C16.7468 3.55316 16.7465 3.55299 16.7462 3.55285C16.6883 3.51909 16.4102 3.43208 15.793 3.59801C15.7922 3.59823 15.7914 3.59846 15.7906 3.59868L9.99978 5.18283C9.5391 5.31198 9.31348 5.58979 9.31348 6.07038L9.31346 7.50579ZM6.31333 17.7637C6.31333 17.3907 6.16513 17.0329 5.90133 16.7691C5.63753 16.5053 5.27974 16.3571 4.90667 16.3571C4.5336 16.3571 4.17581 16.5053 3.912 16.7691C3.6482 17.0329 3.5 17.3907 3.5 17.7637C3.5 18.1368 3.6482 18.4946 3.912 18.7584C4.17581 19.0222 4.5336 19.1704 4.90667 19.1704C5.27974 19.1704 5.63753 19.0222 5.90133 18.7584C6.16513 18.4946 6.31333 18.1368 6.31333 17.7637C6.31333 17.7637 6.31333 17.7637 6.31333 17.7637ZM16.9535 15.8304C16.9535 15.4574 16.8053 15.0997 16.5415 14.8359C16.2777 14.5721 15.9199 14.4239 15.5468 14.4239C15.1737 14.4239 14.8159 14.5721 14.5521 14.8359C14.2883 15.0997 14.1401 15.4575 14.1401 15.8305C14.1401 16.2036 14.2883 16.5614 14.5521 16.8252C14.8159 17.089 15.1737 17.2372 15.5468 17.2372C15.9199 17.2372 16.2777 17.089 16.5415 16.8252C16.8052 16.5614 16.9535 16.2035 16.9535 15.8304ZM21.5 6.9999C21.5 6.17147 22.1716 5.4999 23 5.4999H34C34.8284 5.4999 35.5 6.17147 35.5 6.9999C35.5 7.82832 34.8284 8.4999 34 8.4999H23C22.1716 8.4999 21.5 7.82832 21.5 6.9999ZM21.5 14.9999C21.5 14.1715 22.1716 13.4999 23 13.4999H34C34.8284 13.4999 35.5 14.1715 35.5 14.9999C35.5 15.8283 34.8284 16.4999 34 16.4999H23C22.1716 16.4999 21.5 15.8283 21.5 14.9999ZM10.5 22.9999C10.5 22.1715 11.1716 21.4999 12 21.4999H34C34.8284 21.4999 35.5 22.1715 35.5 22.9999C35.5 23.8283 34.8284 24.4999 34 24.4999H12C11.1716 24.4999 10.5 23.8283 10.5 22.9999ZM10.5 30.9999C10.5 30.1715 11.1716 29.4999 12 29.4999H34C34.8284 29.4999 35.5 30.1715 35.5 30.9999C35.5 31.8283 34.8284 32.4999 34 32.4999H12C11.1716 32.4999 10.5 31.8283 10.5 30.9999Z" fill="currentColor"/>
</svg>
