<svg width="36" height="33" viewBox="0 0 36 33" fill="none" xmlns="http://www.w3.org/2000/svg">
<path d="M23 7H34M23 15H34M12 23H34M12 31H34M7.81333 17.7638C7.81333 18.5347 7.5071 19.2741 6.96199 19.8192C6.41688 20.3643 5.67756 20.6705 4.90667 20.6705C4.13577 20.6705 3.39645 20.3643 2.85134 19.8192C2.30624 19.2741 2 18.5347 2 17.7638C2 16.9929 2.30624 16.2536 2.85134 15.7085C3.39645 15.1634 4.13577 14.8572 4.90667 14.8572C5.67756 14.8572 6.41688 15.1634 6.96199 15.7085C7.5071 16.2536 7.81333 16.9929 7.81333 17.7638ZM7.81333 17.7638L7.81348 6.07048C7.81348 4.85715 8.54681 4.03048 9.60014 3.73715L15.4001 2.15048C16.9335 1.73715 18.4535 2.07048 18.4535 4.48381V15.8305M18.4535 15.8305C18.4535 16.6014 18.1472 17.3409 17.6021 17.886C17.057 18.4311 16.3177 18.7373 15.5468 18.7373C14.7759 18.7373 14.0366 18.4311 13.4915 17.886C12.9464 17.3409 12.6401 16.6015 12.6401 15.8306C12.6401 15.0597 12.9464 14.3204 13.4915 13.7753C14.0366 13.2302 14.7759 12.924 15.5468 12.924C16.3177 12.924 17.057 13.2302 17.6021 13.7753C18.1472 14.3204 18.4535 15.0596 18.4535 15.8305ZM7.81348 9.47063L18.4535 6.56396" stroke="#F0F0F0" stroke-width="3" stroke-linecap="round" stroke-linejoin="round"/>
</svg>
