<svg width="48" height="28" viewBox="0 0 48 28" fill="none" xmlns="http://www.w3.org/2000/svg">
<path d="M12.7468 2.10299L0.783274 13.2689C0.359698 13.6643 0.359696 14.3357 0.783272 14.7311L12.7468 25.897C13.4553 26.5583 14.596 25.926 14.4107 24.9747L12.31 14.1912C12.2854 14.0649 12.2854 13.9351 12.31 13.8088L14.4107 3.02526C14.596 2.07398 13.4553 1.44171 12.7468 2.10299Z" fill="white" fill-opacity="0.9"/>
<path d="M34.2443 26.0362L47.1399 14.7526C47.5952 14.3542 47.5952 13.6458 47.1399 13.2474L34.2443 1.96376C33.5224 1.33213 32.4116 1.98065 32.6067 2.91979L34.8668 13.7966C34.8947 13.9308 34.8947 14.0692 34.8668 14.2034L32.6067 25.0802C32.4116 26.0193 33.5224 26.6679 34.2443 26.0362Z" fill="white" fill-opacity="0.9"/>
<circle cx="23.5" cy="14.5" r="7.5" fill="white" fill-opacity="0.9"/>
</svg>
