<svg width="55" height="50" viewBox="0 0 55 50" fill="none" xmlns="http://www.w3.org/2000/svg">
<path d="M1 9.35606V40.6483C1 47.0571 7.85012 51.079 13.3174 47.8746L26.6638 40.0597L40.0103 32.2121C45.4775 29.0077 45.4775 20.9966 40.0103 17.7922L26.6638 9.94463L13.3174 2.12975C7.85012 -1.07468 1 2.91451 1 9.35606ZM54 45.1933V4.77831Z" fill="#F0F0F0"/>
<path d="M54 45.1933V4.77831M1 9.35606V40.6483C1 47.0571 7.85012 51.079 13.3174 47.8746L26.6638 40.0597L40.0103 32.2121C45.4775 29.0077 45.4775 20.9966 40.0103 17.7922L26.6638 9.94463L13.3174 2.12975C7.85012 -1.07468 1 2.91451 1 9.35606Z" stroke="#F0F0F0" stroke-width="1.5" stroke-linecap="round" stroke-linejoin="round"/>
</svg>
