<svg width="100" height="100" viewBox="0 0 100 100" fill="none" xmlns="http://www.w3.org/2000/svg">
<path d="M43.4384 2.71875C47.0634 -0.90625 52.9384 -0.90625 56.5634 2.71875L97.2821 43.4438C100.907 47.0688 100.907 52.9375 97.2821 56.5562L56.5634 97.2812C52.9384 100.906 47.0696 100.906 43.4509 97.2812L2.7196 56.5625C1.8575 55.7022 1.17354 54.6802 0.706874 53.5552C0.240208 52.4302 0 51.2242 0 50.0063C0 48.7883 0.240208 47.5823 0.706874 46.4573C1.17354 45.3323 1.8575 44.3103 2.7196 43.45L43.4384 2.71875ZM52.1884 7.09375C51.6082 6.51363 50.8213 6.18772 50.0009 6.18772C49.1804 6.18772 48.3935 6.51363 47.8134 7.09375L7.08835 47.8125C6.50823 48.3927 6.18233 49.1795 6.18233 50C6.18233 50.8205 6.50823 51.6073 7.08835 52.1875L47.8134 92.9125C48.3935 93.4926 49.1804 93.8185 50.0009 93.8185C50.8213 93.8185 51.6082 93.4926 52.1884 92.9125L92.9134 52.1875C93.4935 51.6073 93.8194 50.8205 93.8194 50C93.8194 49.1795 93.4935 48.3927 92.9134 47.8125L52.1884 7.0875V7.09375Z" fill="black"/>
</svg>
