<svg width="55" height="50" viewBox="0 0 55 50" fill="none" xmlns="http://www.w3.org/2000/svg">
<path d="M54 40.6439L54 9.35171C54 2.94286 47.1499 -1.07902 41.6826 2.1254L28.3362 9.94028L14.9897 17.7879C9.52245 20.9923 9.52245 29.0034 14.9897 32.2078L28.3362 40.0554L41.6826 47.8703C47.1499 51.0747 54 47.0855 54 40.6439ZM0.999998 4.80666L1 45.2217Z" fill="#F0F0F0"/>
<path d="M0.999998 4.80666L1 45.2217M54 40.6439L54 9.35171C54 2.94286 47.1499 -1.07902 41.6826 2.1254L28.3362 9.94028L14.9897 17.7879C9.52245 20.9923 9.52245 29.0034 14.9897 32.2078L28.3362 40.0554L41.6826 47.8703C47.1499 51.0747 54 47.0855 54 40.6439Z" stroke="#F0F0F0" stroke-width="1.5" stroke-linecap="round" stroke-linejoin="round"/>
</svg>
