<svg width="25" height="28" viewBox="0 0 25 28" fill="none" xmlns="http://www.w3.org/2000/svg">
<path d="M8.14278 15.963L16.87 21.137M16.8572 6.863L8.14278 12.037M24 4.9C24 7.05391 22.2838 8.8 20.1667 8.8C18.0496 8.8 16.3333 7.05391 16.3333 4.9C16.3333 2.74609 18.0496 1 20.1667 1C22.2838 1 24 2.74609 24 4.9ZM8.66667 14C8.66667 16.1539 6.95042 17.9 4.83333 17.9C2.71624 17.9 1 16.1539 1 14C1 11.8461 2.71624 10.1 4.83333 10.1C6.95042 10.1 8.66667 11.8461 8.66667 14ZM24 23.1C24 25.2539 22.2838 27 20.1667 27C18.0496 27 16.3333 25.2539 16.3333 23.1C16.3333 20.9461 18.0496 19.2 20.1667 19.2C22.2838 19.2 24 20.9461 24 23.1Z" stroke="#F0F0F0" stroke-linecap="round" stroke-linejoin="round"/>
</svg>
