<svg width="25" height="23" viewBox="0 0 25 23" fill="none" xmlns="http://www.w3.org/2000/svg">
<path d="M1 19.3684L4.25652 19.3816C5.41866 19.3816 6.50416 18.7895 7.1427 17.8026L15.3032 5.19737C15.6192 4.70796 16.0485 4.30733 16.5524 4.03167C17.0563 3.75601 17.6188 3.61398 18.1893 3.61842L24 3.64474M21.4331 22L23.9872 19.3684M8.52193 7.05263L7.1427 5.07895C6.82371 4.61886 6.40184 4.24473 5.91279 3.98821C5.42374 3.73169 4.8819 3.60033 4.33315 3.60526L1 3.61842M13.7324 15.9474L15.2904 18.0132C15.9417 18.8816 16.9634 19.3947 18.0361 19.3947L24 19.3684M23.9872 3.63158L21.4331 1" stroke="#F0F0F0" stroke-width="1.5" stroke-linecap="round" stroke-linejoin="round"/>
</svg>
