<svg width="55" height="57" viewBox="0 0 55 57" fill="none" xmlns="http://www.w3.org/2000/svg">
<path d="M41.4554 3.50741C40.6491 2.71517 39.6917 2.0867 38.638 1.65793C37.5842 1.22915 36.4548 1.00845 35.3142 1.00845C34.1736 1.00845 33.0442 1.22915 31.9905 1.65793C30.9367 2.0867 29.9794 2.71517 29.173 3.50741L27.4996 5.15082L25.8261 3.50741C24.1974 1.90788 21.9883 1.00928 19.685 1.00928C17.3816 1.00928 15.1725 1.90788 13.5438 3.50741C11.915 5.10693 11 7.27635 11 9.53841C11 11.8005 11.915 13.9699 13.5438 15.5694L15.2172 17.2128L27.4996 29.2748L39.782 17.2128L41.4554 15.5694C42.2621 14.7775 42.902 13.8373 43.3387 12.8025C43.7753 11.7677 44 10.6585 44 9.53841C44 8.41828 43.7753 7.30912 43.3387 6.2743C42.902 5.23948 42.2621 4.29928 41.4554 3.50741Z" stroke="#414141" stroke-width="2" stroke-linecap="round" stroke-linejoin="round"/>
<path d="M27 55.5222L27 35.3319" stroke="#414141" stroke-width="2" stroke-linecap="round" stroke-linejoin="round"/>
<path d="M20 42.3985L27 35.3319L34 42.3985" stroke="#414141" stroke-width="2" stroke-linecap="round" stroke-linejoin="round"/>
<path d="M49 40.3795L49 26.2463" stroke="#414141" stroke-width="2" stroke-linecap="round" stroke-linejoin="round"/>
<path d="M44 31.2939L49 26.2463L54 31.2939" stroke="#414141" stroke-width="2" stroke-linecap="round" stroke-linejoin="round"/>
<path d="M6 40.3795L6 26.2463" stroke="#414141" stroke-width="2" stroke-linecap="round" stroke-linejoin="round"/>
<path d="M1 31.2939L6 26.2463L11 31.2939" stroke="#414141" stroke-width="2" stroke-linecap="round" stroke-linejoin="round"/>
</svg>
